<?xml version="1.0" encoding="UTF-8" ?>
<!DOCTYPE svg PUBLIC "-//W3C//DTD SVG 1.1//EN" "http://www.w3.org/Graphics/SVG/1.1/DTD/svg11.dtd">
<svg width="1024pt" height="1024pt" viewBox="0 0 1024 1024" version="1.1" xmlns="http://www.w3.org/2000/svg">
<g id="#f5f4f2ff">
</g>
<g id="#000000ff">
<path fill="#000000" opacity="1.00" d=" M 251.55 144.75 C 254.69 144.35 257.84 143.96 261.02 144.00 C 426.68 144.00 592.33 144.00 757.99 144.00 C 792.96 142.84 828.35 157.12 852.26 182.76 C 872.22 203.39 884.57 231.26 886.00 259.96 C 886.00 420.30 886.00 580.64 886.00 740.98 C 885.69 754.14 887.01 767.44 884.31 780.43 C 880.09 802.15 869.97 822.77 854.90 839.02 C 834.99 860.78 807.51 875.91 778.13 879.66 C 766.82 881.09 755.41 880.60 744.05 880.68 C 583.35 880.67 422.66 880.68 261.96 880.68 C 243.85 880.55 225.74 876.49 209.51 868.37 C 173.85 851.04 147.70 815.95 140.93 776.93 C 139.17 767.74 139.24 758.33 139.26 749.01 C 139.25 590.33 139.22 431.66 139.27 272.98 C 139.03 255.34 141.37 237.43 148.24 221.07 C 158.69 195.54 177.64 173.29 201.94 160.03 C 217.33 151.93 234.24 146.56 251.55 144.75 M 240.21 201.20 C 231.88 210.34 228.97 222.97 228.01 234.98 C 227.97 243.67 227.67 252.39 229.05 261.00 C 235.79 311.15 256.26 358.30 280.51 402.29 C 284.83 393.79 289.12 385.24 293.11 376.58 C 281.69 357.21 270.79 337.42 262.24 316.58 C 253.65 295.35 247.70 272.92 246.02 250.04 C 246.02 240.86 245.28 231.35 248.62 222.60 C 250.94 216.77 256.48 212.49 262.81 212.12 C 278.46 210.98 293.67 216.64 307.56 223.29 C 326.79 233.47 344.00 248.72 353.75 268.42 C 357.85 277.18 360.85 286.48 362.24 296.07 C 363.26 300.15 362.80 304.43 363.90 308.50 C 357.86 318.88 348.08 326.30 340.60 335.54 C 326.88 351.41 315.12 368.94 305.27 387.44 C 293.94 409.25 284.30 431.93 276.04 455.07 C 265.43 487.09 257.66 521.05 261.93 554.92 C 264.17 574.90 271.35 594.11 281.48 611.42 C 286.57 620.65 290.23 631.45 287.93 642.05 C 283.95 661.12 271.59 677.49 269.08 696.98 C 268.91 703.33 268.47 709.81 270.02 716.04 C 274.79 740.25 295.52 760.66 320.13 764.04 C 318.57 758.22 318.10 752.17 317.79 746.18 C 316.35 741.43 311.02 739.70 307.51 736.75 C 297.07 728.72 286.93 718.74 283.29 705.68 C 280.55 694.80 285.57 684.29 289.50 674.42 C 297.11 656.63 303.58 638.34 308.34 619.58 C 309.17 615.38 311.54 611.36 311.12 607.02 C 307.75 599.81 300.74 595.28 296.18 588.91 C 279.39 567.71 274.04 539.42 276.05 512.97 C 277.50 501.93 279.36 490.36 285.85 481.02 C 288.90 476.31 294.63 474.14 300.05 474.04 C 308.46 474.63 316.03 479.32 321.72 485.32 C 329.03 493.65 334.56 503.50 337.97 514.05 C 343.68 530.37 345.46 547.96 343.53 565.12 C 341.14 584.07 334.02 601.99 326.17 619.26 C 318.44 636.77 310.26 654.14 304.44 672.41 C 302.78 678.02 301.59 683.87 302.06 689.76 C 305.85 691.28 309.98 691.04 313.97 691.45 C 322.93 692.39 331.95 691.87 340.94 692.01 C 348.61 692.10 356.37 690.52 363.98 692.03 C 369.54 693.65 374.87 697.65 376.76 703.30 C 378.64 712.50 373.56 721.20 367.90 728.02 C 360.84 736.81 350.14 742.24 338.93 743.16 C 338.53 748.42 341.12 753.66 345.79 756.23 C 356.91 762.82 370.32 763.50 382.93 763.02 C 409.63 761.40 434.89 749.24 454.89 731.83 C 464.09 724.44 471.77 715.43 479.35 706.45 C 483.22 702.23 487.70 698.26 493.15 696.25 C 496.48 695.63 500.65 695.04 503.27 697.73 C 505.55 699.95 505.07 703.37 504.91 706.25 C 503.37 712.47 497.88 716.31 493.69 720.71 C 480.93 733.30 468.97 746.87 454.23 757.24 C 436.93 769.93 416.73 779.90 394.98 781.02 C 388.32 781.31 381.66 780.92 375.00 781.00 C 359.84 780.95 345.44 775.83 330.88 772.29 C 329.26 771.89 327.59 771.97 325.96 771.90 C 329.47 782.04 337.05 790.41 346.22 795.81 C 357.07 802.13 369.59 804.74 381.96 805.99 C 388.32 806.10 394.69 805.99 401.06 806.00 C 415.24 805.03 429.30 801.92 442.56 796.74 C 462.40 789.06 480.40 777.55 498.44 766.43 C 515.62 755.77 534.28 747.58 553.62 741.73 C 573.55 735.31 594.31 731.86 614.12 725.03 C 663.80 708.55 709.17 679.01 744.12 640.04 C 754.93 627.95 763.43 614.04 771.15 599.84 C 772.62 603.15 773.72 606.62 774.86 610.06 C 784.59 642.71 789.40 676.50 795.17 709.99 C 800.24 737.97 804.48 766.09 809.59 794.06 C 811.72 805.46 812.59 817.04 812.01 828.63 C 815.19 824.00 816.31 818.33 817.56 812.96 C 820.84 796.15 822.63 779.11 823.98 762.07 C 823.77 753.36 825.27 744.73 825.01 736.02 C 825.22 690.75 821.09 645.60 813.77 600.95 C 807.32 564.30 799.67 527.68 787.30 492.51 C 783.66 483.02 780.39 473.24 774.99 464.57 C 775.32 453.24 781.42 443.32 786.52 433.56 C 792.04 422.68 796.12 411.13 799.53 399.43 C 808.37 369.47 813.52 338.25 812.21 306.97 C 811.88 287.13 810.05 267.08 803.86 248.11 C 798.57 232.47 791.03 216.58 777.55 206.38 C 768.82 199.75 757.69 197.53 746.97 197.02 C 716.49 196.74 686.33 207.10 661.57 224.72 C 646.66 235.16 633.68 248.04 621.24 261.24 C 602.95 281.56 585.66 302.93 571.19 326.17 C 569.32 328.65 566.85 330.67 564.00 331.90 C 546.89 339.74 532.07 351.65 518.25 364.25 C 508.35 374.06 498.17 383.65 489.31 394.44 C 467.19 421.54 448.43 451.26 431.78 481.98 C 430.09 484.79 429.15 488.05 426.98 490.56 C 427.12 486.99 427.97 483.50 428.02 479.93 C 429.88 458.91 435.79 438.26 445.26 419.40 C 449.01 412.47 453.14 405.76 457.13 398.97 C 473.29 371.63 492.48 346.12 513.69 322.51 C 531.77 302.00 551.36 282.74 573.05 266.04 C 565.59 265.35 558.49 268.24 551.58 270.60 C 528.34 278.88 506.77 291.38 487.09 306.17 C 474.14 316.03 461.80 326.84 451.18 339.23 C 440.10 351.73 430.47 365.44 421.23 379.33 C 408.73 398.64 396.90 418.44 387.19 439.32 C 378.90 457.44 371.63 476.04 365.36 494.95 C 365.06 495.34 364.47 496.12 364.17 496.51 C 364.59 457.40 371.74 417.93 388.20 382.26 C 404.27 349.75 424.55 319.00 450.30 293.32 C 465.62 279.03 482.04 265.79 500.14 255.17 C 502.76 253.57 505.64 252.30 507.81 250.06 C 499.64 249.76 491.43 249.83 483.40 251.48 C 462.14 255.52 441.83 264.01 423.55 275.53 C 421.50 276.78 419.62 278.34 417.37 279.23 C 406.06 258.88 388.91 242.27 370.08 228.83 C 347.60 213.71 323.32 200.52 296.87 193.94 C 286.46 191.45 275.85 188.88 265.07 189.60 C 255.71 190.00 246.36 194.03 240.21 201.20 M 309.14 523.62 C 306.93 536.27 309.40 549.46 314.88 561.00 C 315.63 562.14 315.75 563.99 317.31 564.42 C 317.44 554.91 320.77 545.27 317.84 535.89 C 316.36 531.13 314.02 525.67 309.14 523.62 Z" />
<path fill="#000000" opacity="1.00" d=" M 735.05 219.21 C 745.26 218.44 756.52 218.48 765.05 225.00 C 775.99 233.49 781.35 247.01 784.98 259.96 C 791.54 285.42 791.90 312.13 788.87 338.13 C 786.24 357.80 781.37 377.28 773.32 395.46 C 767.78 407.74 760.64 419.54 750.83 428.88 C 746.75 432.74 741.79 436.45 735.92 436.41 C 729.13 436.52 723.31 432.60 717.46 429.72 C 707.56 424.67 697.68 419.58 687.72 414.67 C 690.50 403.36 697.36 393.11 706.63 386.07 C 698.45 386.00 690.19 385.46 682.09 386.78 C 674.28 387.44 666.64 389.23 658.90 390.36 C 663.43 376.80 670.27 363.97 679.20 352.84 C 672.96 351.22 666.09 350.78 659.62 351.79 C 649.12 352.36 639.69 358.76 629.03 358.05 C 625.35 358.19 621.42 356.37 620.27 352.66 C 619.54 348.43 620.04 344.07 621.12 339.94 C 623.93 328.55 629.18 317.96 634.53 307.58 C 642.32 292.62 651.64 278.45 662.51 265.54 C 673.81 252.40 686.49 240.12 701.63 231.47 C 711.95 225.53 723.24 221.05 735.05 219.21 Z" />
<path fill="#000000" opacity="1.00" d=" M 477.62 506.73 C 492.63 495.35 511.21 488.86 530.00 488.00 C 545.89 487.58 562.15 489.16 576.97 495.23 C 584.35 498.43 592.40 502.88 595.15 510.99 C 596.86 514.51 595.11 518.33 594.55 521.92 C 590.11 541.15 583.18 560.26 571.12 576.09 C 556.69 594.60 534.11 605.69 511.10 608.75 C 497.05 609.97 482.93 609.03 468.95 607.61 C 466.79 607.20 464.52 606.73 462.42 607.58 C 445.18 613.72 430.50 625.03 416.51 636.53 C 407.54 644.02 398.61 651.58 390.30 659.80 C 390.25 659.51 390.16 658.91 390.11 658.61 C 398.70 638.41 409.84 619.46 419.97 600.02 C 428.94 583.23 437.50 566.22 446.20 549.29 C 449.81 542.06 454.13 535.21 458.51 528.43 C 463.92 520.45 469.68 512.41 477.62 506.73 M 502.59 537.71 C 492.82 542.41 488.07 553.70 488.11 564.08 C 488.66 568.32 489.40 573.39 493.48 575.72 C 498.67 578.24 504.46 574.78 507.77 570.75 C 514.24 562.52 517.15 551.59 515.74 541.23 C 515.30 539.03 514.06 537.14 512.18 535.92 C 508.88 535.81 505.50 535.98 502.59 537.71 Z" />
<path fill="#000000" opacity="1.00" d=" M 710.95 526.09 C 712.50 524.61 714.81 524.78 716.76 525.11 C 722.36 527.68 724.71 533.96 725.66 539.65 C 727.41 554.47 723.75 569.36 718.20 583.04 C 711.73 599.33 701.32 613.74 689.42 626.49 C 665.82 652.48 636.78 672.91 606.45 690.29 C 580.27 705.14 552.77 717.74 524.32 727.55 C 538.16 712.01 554.44 698.86 568.81 683.83 C 571.02 681.54 573.50 678.91 573.11 675.46 C 571.60 674.03 569.95 672.71 567.95 672.05 C 558.00 668.50 547.29 668.77 536.88 669.11 C 513.23 671.75 490.09 678.58 468.43 688.37 C 468.80 687.25 469.69 686.49 470.55 685.75 C 479.75 676.77 489.86 668.71 500.52 661.52 C 519.20 649.11 541.32 643.66 562.99 639.09 C 581.62 635.20 599.67 628.12 615.56 617.56 C 626.81 610.05 637.31 601.40 646.82 591.79 C 668.63 570.31 689.84 548.23 710.95 526.09 Z" />
</g>
</svg>
